<?xml version="1.0" standalone="no"?>
<!DOCTYPE svg PUBLIC "-//W3C//DTD SVG 20010904//EN"
 "http://www.w3.org/TR/2001/REC-SVG-20010904/DTD/svg10.dtd">
<svg version="1.0" xmlns="http://www.w3.org/2000/svg"
 width="700.000000pt" height="700.000000pt" viewBox="0 0 700.000000 700.000000"
 preserveAspectRatio="xMidYMid meet">
<metadata>
Created by potrace 1.11, written by Peter Selinger 2001-2013
</metadata>
<g transform="translate(0.000000,700.000000) scale(0.100000,-0.100000)"
fill="#000000" stroke="none">
<path d="M70 3500 l0 -3430 3430 0 3430 0 0 3430 0 3430 -3430 0 -3430 0 0
-3430z m3220 2143 l0 -138 -561 -775 -561 -775 576 -3 576 -2 0 -165 0 -165
-815 0 -815 0 0 150 0 151 555 759 c305 418 555 762 555 765 0 3 -243 5 -540
5 l-540 0 0 165 0 165 785 0 785 0 0 -137z m690 -570 c1 -785 3 -814 61 -924
39 -72 127 -145 218 -180 70 -27 202 -36 280 -19 136 30 268 133 309 242 39
105 42 161 42 886 l0 702 205 0 205 0 0 -695 c0 -427 -4 -733 -11 -792 -41
-369 -232 -593 -584 -684 -79 -21 -112 -24 -275 -23 -166 1 -195 3 -282 27
-268 71 -460 248 -532 487 -42 140 -46 213 -46 963 l0 717 205 0 205 0 0 -707z
m-1394 -1694 c88 -15 180 -47 268 -92 248 -128 369 -426 291 -720 -49 -185
-188 -325 -395 -395 l-50 -17 286 -455 c158 -250 289 -461 291 -468 4 -10 -44
-12 -232 -10 l-238 3 -255 438 -254 437 -99 0 -99 0 0 -440 0 -440 -202 2
-203 3 -3 1083 -2 1082 418 0 c248 0 442 -4 478 -11z m1364 -696 c1 -733 4
-802 43 -893 42 -98 145 -183 264 -220 208 -64 459 25 545 194 53 103 52 87
55 884 l4 742 205 0 205 0 -4 -757 c-3 -537 -8 -774 -16 -813 -46 -212 -133
-360 -270 -461 -160 -118 -334 -169 -576 -169 -283 0 -491 75 -650 235 -75 75
-139 182 -169 285 -42 141 -46 213 -46 963 l0 717 205 0 205 0 0 -707z"/>
<path d="M2100 2746 l0 -326 113 0 c255 1 363 26 442 105 91 92 118 243 62
357 -34 69 -109 140 -175 164 -37 13 -90 18 -244 22 l-198 4 0 -326z"/>
</g>
</svg>
