<?xml version="1.0" standalone="no"?>
<!DOCTYPE svg PUBLIC "-//W3C//DTD SVG 20010904//EN"
 "http://www.w3.org/TR/2001/REC-SVG-20010904/DTD/svg10.dtd">
<svg version="1.0" xmlns="http://www.w3.org/2000/svg"
 width="4500.000000pt" height="4500.000000pt" viewBox="0 0 4500.000000 4500.000000"
 preserveAspectRatio="xMidYMid meet">
<metadata>
Created by potrace 1.11, written by Peter Selinger 2001-2013
</metadata>
<g transform="translate(0.000000,4500.000000) scale(0.100000,-0.100000)"
fill="#000000" stroke="none">
<path d="M0 22500 l0 -22500 22500 0 22500 0 0 22500 0 22500 -22500 0 -22500
0 0 -22500z m32915 10860 c-4 -6 -3148 -4248 -6987 -9427 -3839 -5179 -6982
-9422 -6985 -9429 -5 -14 74 -33 377 -93 437 -85 892 -139 1460 -173 297 -17
1348 -17 1955 2 557 17 1312 19 2000 6 366 -7 652 -5 1290 9 2270 49 3075 -40
4062 -451 534 -222 1093 -559 1523 -918 213 -178 324 -327 391 -526 27 -81 33
-114 37 -220 4 -106 1 -139 -17 -210 -113 -448 -563 -741 -1281 -834 -405 -53
-505 -52 -7510 4 -685 6 -2516 13 -4070 17 -3409 7 -4488 -4 -5070 -53 -233
-20 -610 -15 -790 11 -246 34 -480 93 -705 176 -119 44 -426 191 -444 213 -8
10 1565 2124 7003 9407 6753 9045 7013 9394 6987 9401 -14 3 -134 11 -266 17
-960 45 -1722 56 -2923 42 -723 -9 -1331 -9 -2412 0 -1000 7 -1748 8 -2430 1
-1002 -10 -1277 -6 -1584 23 -1248 119 -2103 576 -2759 1473 -186 255 -398
635 -550 987 -63 146 -207 526 -207 545 0 7 3464 10 9956 10 6913 0 9953 -3
9949 -10z"/>
</g>
</svg>
