<svg xmlns="http://www.w3.org/2000/svg" width="335.287" height="830.497" viewBox="0 0 88.711 219.736"><path fill="#b7de33" d="M88.711 0v29.41h-3.82c-.898 0-1.784.024-2.67.065-.544.024-1.082.054-1.62.097-2.891.222-5.76.67-8.58 1.34a41.94 41.94 0 00-1.943.503 54.447 54.447 0 00-11.014 4.36 47.385 47.385 0 00-2.824 1.598 55.627 55.627 0 00-23.936 29.78 54.283 54.283 0 00-.933 3.07 55.296 55.296 0 00-1.951 13.682c-.011.322-.011.652-.011.98v105.442a29.61 29.61 0 01-.37 4.673v.005a27.884 27.884 0 01-.533 2.566v.007a29.459 29.459 0 01-15.298 19.03c-.783.4-1.591.759-2.41 1.083a29.236 29.236 0 01-9.112 1.997c-.52.03-1.046.048-1.578.048H0V84.832c-.002-3.37.2-6.74.603-10.085.09-.768.193-1.533.3-2.292a84.53 84.53 0 014.11-16.363 85.131 85.131 0 0137.54-44.79 84.323 84.323 0 0112.15-5.774 69.77 69.77 0 012.179-.79 84.057 84.057 0 0111.57-3.14A82.453 82.453 0 0176.94.372a64.67 64.67 0 011.646-.137A83.887 83.887 0 0184.89 0z"/></svg>