<svg xmlns="http://www.w3.org/2000/svg" viewBox="0 0 99 99">
  <defs/>
  <path id="border" stroke="#fff" d="M.5.5h98v98H.5z"/>
  <g fill="#fff">
    <path id="text" d="M39.748 21.873H24.291v-4.664h22.252v3.909l-15.9 21.986h16.3v4.752h-23.1v-4.22zM74.971 35.198c0 4.086-.578 7.061-2.71 9.5-2.088 2.354-5.286 3.687-9.55 3.687s-7.461-1.333-9.549-3.687c-2.132-2.443-2.71-5.418-2.71-9.5V17.209h5.818v17.812c0 2.354.089 4.441 1.288 6a6.9 6.9 0 0010.3 0c1.2-1.554 1.332-3.642 1.332-6V17.209h5.774zM29.71 69.244v12.437h-5.774V51.034h9.86a12.379 12.379 0 017.728 2.176 8.394 8.394 0 013.287 6.751c0 5.286-2.887 7.419-6.618 8.573l8.261 13.147h-6.751l-7.24-12.437zm7.373-5.507a4.531 4.531 0 000-7.2c-1.11-.843-2.532-.977-4.4-.977h-3.02v9.15h3.02c1.867.003 3.289-.129 4.399-.974zM74.549 69.021c0 4.087-.578 7.062-2.71 9.505-2.087 2.354-5.286 3.686-9.549 3.686s-7.462-1.332-9.55-3.686c-2.132-2.443-2.71-5.418-2.71-9.505V51.033h5.819v17.811c0 2.355.089 4.442 1.287 6a6.9 6.9 0 0010.3 0c1.2-1.554 1.332-3.642 1.332-6V51.033h5.774z"/>
  </g>
</svg>
