<svg xmlns="http://www.w3.org/2000/svg" width="141.473" height="87.115" viewBox="0 0 141.473 87.115"><path d="M29.356,39.293v-6.73H11.678L28.8,10.164V4.64H1.835v6.579H18.307L1.332,33.417v5.876Zm26.919,0V14.534H48.239V27.692c0,3.264-1.306,5.524-4.168,5.524S40.4,31.257,40.4,28.395V14.534H32.369V29.5c0,6.177,2.059,10.346,8.889,10.346A9.012,9.012,0,0,0,48.49,36.48l.05,2.812ZM77.568,14.534a5.779,5.779,0,0,0-2.511-.452,6.548,6.548,0,0,0-6.127,3.967h-.1l.05-3.515H60.845V39.293H68.88v-11c0-3.264,1-6.981,4.972-6.981a6.472,6.472,0,0,1,2.913.6h.352Zm25.713,24.759V14.534H95.246V27.692c0,3.264-1.306,5.524-4.168,5.524s-3.666-1.959-3.666-4.821V14.534H79.376V29.5c0,6.177,2.059,10.346,8.889,10.346A9.012,9.012,0,0,0,95.5,36.48l.05,2.812Zm-68.6,38V62.929H19.462v6.177h7.282v5.123s-1.607,2.21-7.232,2.21S9.468,72.37,9.468,65.339s4.319-11.1,9.894-11.1a11.484,11.484,0,0,1,8.889,3.967l5.374-4.671c-1.1-1.205-5.072-6.027-14.263-6.027-9.693,0-18.13,6.278-18.13,17.829S9.669,83.218,19.261,83.218C28.8,83.218,32.922,78.849,34.679,77.292ZM55.822,57.906a5.779,5.779,0,0,0-2.511-.452,6.548,6.548,0,0,0-6.127,3.967h-.1l.05-3.515H39.1V82.665h8.035v-11c0-3.264,1-6.981,4.972-6.981a6.472,6.472,0,0,1,2.913.6h.352ZM83.545,70.361c0-7.985-5.876-12.907-13.71-12.907S56.074,62.376,56.074,70.361,62,83.218,69.834,83.218,83.545,78.346,83.545,70.361Zm-8.086-.151c0,3.666-2.109,6.428-5.625,6.428-3.566,0-5.625-2.762-5.625-6.428s2.059-6.428,5.625-6.428C73.35,63.782,75.459,66.544,75.459,70.211Zm35,12.455V57.906h-8.035V71.064c0,3.264-1.306,5.524-4.168,5.524s-3.666-1.959-3.666-4.821V57.906H86.558V72.872c0,6.177,2.059,10.346,8.889,10.346a9.012,9.012,0,0,0,7.232-3.365l.05,2.812Zm32.242-12.354c0-7.282-4.52-12.857-11.651-12.857a10.221,10.221,0,0,0-8.236,3.616h-.1l.05-3.164h-7.634V91.755h8.035v-12.2c1.557,2.31,4.168,3.666,7.834,3.666C138.185,83.218,142.705,77.593,142.705,70.311Zm-8.186-.1c0,3.817-2.36,6.428-5.826,6.428-3.415,0-5.775-2.612-5.775-6.428s2.36-6.428,5.775-6.428C132.159,63.782,134.519,66.394,134.519,70.211Z" transform="translate(-1.232 -4.64)" fill="#fff"/></svg>