<svg xmlns="http://www.w3.org/2000/svg" width="59.16" height="56.714" viewBox="0 0 59.16 56.714"><g transform="translate(-142 -86.14)"><g transform="translate(201.16 142.854) rotate(180)"><g transform="translate(47.485 0)"><path d="M11.129,13.347H.546A.546.546,0,0,1,0,12.8V.579A.546.546,0,0,1,.183.171L.219.139A.547.547,0,0,1,.582,0H9.747a1.845,1.845,0,0,1,1.928,1.93V12.8A.546.546,0,0,1,11.129,13.347ZM1.093,12.254h9.489V1.93a.761.761,0,0,0-.835-.837H1.093Z" transform="translate(0)" fill="#05ffc5"/></g><g transform="translate(0 0)"><path d="M15.395,56.714H2.5A2.4,2.4,0,0,1,0,54.21V39.465a.656.656,0,0,1,.22-.49L43.913.166A.656.656,0,0,1,45,.656V16.335H58.5a.656.656,0,0,1,.656.656v.064a.655.655,0,0,1-.216.487l-15.3,13.846-7.434,6.588L15.837,56.543A.656.656,0,0,1,15.395,56.714ZM1.312,39.759V54.21A1.1,1.1,0,0,0,2.5,55.4H15.141L35.33,37l7.436-6.59L56.872,17.647H44.349a.656.656,0,0,1-.656-.656V2.117Z" fill="#05ffc5"/></g><g transform="translate(21.084 37.991)"><path d="M.593,18.723a.6.6,0,0,1-.553-.4.656.656,0,0,1,.154-.693L18.29.164A.575.575,0,0,1,18.69,0h0L36.156.059c1.13,0,1.919.968,1.919,2.354V16.3a2.341,2.341,0,0,1-1.024,2.117,1.771,1.771,0,0,1-.9.238c-.506,0-5.921.01-14.119.026L.594,18.723ZM18.918,1.259l-16.79,16.2,19.907-.038c8.491-.017,13.619-.026,14.122-.026a.632.632,0,0,0,.321-.082,1.146,1.146,0,0,0,.411-1.015V2.413c0-.53-.192-1.1-.733-1.1h0Z" transform="translate(0 0)" fill="#05ffc5"/></g><g transform="translate(0 0)"><path d="M4.1,18.813c-1,0-1.686-.006-1.977-.017a2.129,2.129,0,0,1-1.39-.528A2.445,2.445,0,0,1,0,16.423V2.384A2.38,2.38,0,0,1,.866.431,2.1,2.1,0,0,1,2.144.011h0C3.127,0,17.3-.006,38.138.01a.6.6,0,0,1,.559.4.65.65,0,0,1-.158.693l-18.4,17.407a.583.583,0,0,1-.393.162C12.962,18.763,7.1,18.813,4.1,18.813ZM2.157,1.268a.954.954,0,0,0-.584.178,1.142,1.142,0,0,0-.375.938V16.423a1.188,1.188,0,0,0,.324.895,1.007,1.007,0,0,0,.652.221c.946.039,7.333.01,17.327-.119L36.58,1.267c-19.983-.015-33.467-.01-34.423,0Z" fill="#05ffc5"/></g></g></g></svg>