<?xml version="1.0" encoding="UTF-8" standalone="no"?>
<svg
   xmlns:dc="http://purl.org/dc/elements/1.1/"
   xmlns:cc="http://creativecommons.org/ns#"
   xmlns:rdf="http://www.w3.org/1999/02/22-rdf-syntax-ns#"
   xmlns:svg="http://www.w3.org/2000/svg"
   xmlns="http://www.w3.org/2000/svg"
   xmlns:sodipodi="http://sodipodi.sourceforge.net/DTD/sodipodi-0.dtd"
   xmlns:inkscape="http://www.inkscape.org/namespaces/inkscape"
   inkscape:version="1.0 (4035a4fb49, 2020-05-01)"
   sodipodi:docname="arrow.svg"
   id="svg4"
   version="1.1"
   viewBox="0 0 26.014 48.886001"
   height="48.886002"
   width="26.014">
  <metadata
     id="metadata10">
    <rdf:RDF>
      <cc:Work
         rdf:about="">
        <dc:format>image/svg+xml</dc:format>
        <dc:type
           rdf:resource="http://purl.org/dc/dcmitype/StillImage" />
      </cc:Work>
    </rdf:RDF>
  </metadata>
  <defs
     id="defs8" />
  <sodipodi:namedview
     inkscape:current-layer="svg4"
     inkscape:window-maximized="1"
     inkscape:window-y="-3"
     inkscape:window-x="-8"
     inkscape:cy="24.445"
     inkscape:cx="13.0055"
     inkscape:zoom="22.641931"
     showgrid="false"
     id="namedview6"
     inkscape:window-height="1017"
     inkscape:window-width="1920"
     inkscape:pageshadow="2"
     inkscape:pageopacity="0"
     guidetolerance="10"
     gridtolerance="10"
     objecttolerance="10"
     borderopacity="1"
     bordercolor="#666666"
     pagecolor="#ffffff" />
  <path
     id="path2"
     fill="#d0ed31"
     d="M 10.043,48.886 H 0 v -1.118 q 0,-1.165 0.094,-2.307 c 0.012,-0.164 0.027,-0.327 0.043,-0.49 Q 0.25,43.804 0.458,42.665 c 0.027,-0.153 0.055,-0.3 0.086,-0.456 q 0.215,-1.094 0.513,-2.153 c 0.039,-0.141 0.08,-0.284 0.123,-0.425 q 0.3,-1.026 0.682,-2.016 c 0.051,-0.133 0.1,-0.268 0.155,-0.4 Q 2.4,36.25 2.853,35.321 c 0.061,-0.126 0.123,-0.251 0.186,-0.376 0.3,-0.6 0.631,-1.2 0.977,-1.777 0.069,-0.119 0.141,-0.237 0.214,-0.354 q 0.527,-0.855 1.111,-1.669 c 0.08,-0.11 0.161,-0.223 0.243,-0.333 0.4,-0.535 0.811,-1.058 1.242,-1.563 0.09,-0.1 0.178,-0.206 0.27,-0.308 0.441,-0.5 0.9,-0.991 1.375,-1.458 0.1,-0.1 0.2,-0.194 0.3,-0.288 q 0.729,-0.7 1.508,-1.351 c 0.106,-0.09 0.217,-0.18 0.325,-0.266 0.488,-0.4 0.993,-0.778 1.508,-1.14 A 28.66,28.66 0 0 1 8.069,20.985 28.6,28.6 0 0 1 3.45,14.709 v 0 c -0.161,-0.3 -0.319,-0.6 -0.47,-0.9 A 27.982,27.982 0 0 1 1.415,9.989 C 1.337,9.756 1.264,9.521 1.194,9.289 A 28.086,28.086 0 0 1 0.444,6.122 C 0.407,5.922 0.375,5.722 0.344,5.515 0.203,4.596 0.103,3.662 0.052,2.715 0.042,2.533 0.034,2.349 0.025,2.167 Q 0.007,1.644 0.007,1.117 V 0 H 10.05 v 1.117 c 0,0.125 0,0.248 0,0.372 a 18.3,18.3 0 0 0 0.266,2.776 c 0.035,0.208 0.074,0.413 0.114,0.617 a 18.385,18.385 0 0 0 1.066,3.422 c 0.118,0.278 0.241,0.551 0.374,0.823 v 0 a 18.521,18.521 0 0 0 12.417,9.981 c 0.292,0.07 0.586,0.131 0.885,0.184 0.174,0.033 0.349,0.061 0.525,0.088 0.1,0.016 0.21,0.033 0.317,0.047 v 10.027 c -0.11,0.014 -0.219,0.03 -0.329,0.049 a 17.511,17.511 0 0 0 -1.994,0.421 c -0.161,0.043 -0.323,0.089 -0.482,0.139 a 17.769,17.769 0 0 0 -2.182,0.81 c -0.141,0.061 -0.28,0.125 -0.417,0.189 a 18.251,18.251 0 0 0 -1.894,1.042 c -0.123,0.076 -0.243,0.153 -0.364,0.233 a 18.059,18.059 0 0 0 -1.655,1.232 c -0.108,0.087 -0.214,0.179 -0.319,0.271 a 17.968,17.968 0 0 0 -1.442,1.4 c -0.094,0.1 -0.184,0.2 -0.274,0.3 a 17.942,17.942 0 0 0 -1.24,1.567 c -0.08,0.112 -0.157,0.225 -0.233,0.339 a 17.764,17.764 0 0 0 -1.034,1.732 c -0.065,0.123 -0.129,0.248 -0.19,0.372 a 17.89,17.89 0 0 0 -0.817,1.908 c -0.049,0.135 -0.1,0.271 -0.143,0.411 a 18.111,18.111 0 0 0 -0.572,2.1 c -0.031,0.151 -0.059,0.3 -0.088,0.454 a 18.8,18.8 0 0 0 -0.274,2.343 c -0.01,0.169 -0.016,0.339 -0.02,0.508 v 0 q -0.006,0.239 -0.006,0.478 z" />
</svg>
