<svg xmlns="http://www.w3.org/2000/svg" width="52.851" height="50.083" viewBox="0 0 52.851 50.083"><path d="M-244.147-1203.055v4.656h-16.966v-4.656a31.072,31.072,0,0,0-.518-5.677c-.09-.5-.2-1-.311-1.494A31.292,31.292,0,0,0-278.8-1231.2h0c-.459-.221-.921-.431-1.394-.632a31.005,31.005,0,0,0-5.781-1.8c-.345-.069-.69-.135-1.039-.193a31.372,31.372,0,0,0-4.69-.449c-.211,0-.421-.007-.632-.007h-1.888v-16.966h1.888c.6,0,1.184.01,1.777.031.307.014.614.028.925.045,1.6.086,3.175.259,4.728.494.342.055.68.11,1.022.173a47.284,47.284,0,0,1,5.349,1.266c.4.117.8.242,1.187.373a47.187,47.187,0,0,1,6.457,2.644c.511.255,1.022.521,1.522.794h0a48.245,48.245,0,0,1,10.605,7.8,48.5,48.5,0,0,1,7.437,9.253,47.983,47.983,0,0,1,5.315,12q.233.823.442,1.657a47.941,47.941,0,0,1,1.191,6.864c.038.411.072.821.1,1.235Q-244.149-1204.855-244.147-1203.055Z" transform="translate(1251.25 -244.147) rotate(-90)" fill="#d0ed31"/></svg>