<svg xmlns="http://www.w3.org/2000/svg" viewBox="0 0 6.658 12.514"><path fill="#d0ed31" d="M2.571 12.515H0v-.286q0-.3.024-.59c0-.042.007-.084.011-.125q.029-.3.082-.591l.022-.117q.055-.28.131-.551l.031-.109q.078-.263.175-.516c.013-.034.026-.068.04-.1q.1-.247.214-.485l.048-.1c.078-.155.162-.307.25-.455l.055-.091c.09-.146.185-.288.285-.427l.062-.085q.152-.206.318-.4l.069-.079c.113-.129.23-.254.352-.373l.076-.074a7.05 7.05 0 01.386-.346l.083-.068c.125-.1.254-.2.386-.292a7.347 7.347 0 01-1.035-.884A7.322 7.322 0 01.883 3.765a6.302 6.302 0 01-.12-.231 7.164 7.164 0 01-.4-.978q-.03-.089-.056-.18a7.2 7.2 0 01-.192-.811c-.009-.052-.018-.1-.026-.155A7.323 7.323 0 01.014.694c0-.047 0-.094-.007-.14V-.001h2.571v.386a4.687 4.687 0 00.068.711l.029.158a4.711 4.711 0 00.273.876c.03.071.062.141.1.211a4.741 4.741 0 003.178 2.555c.075.018.15.033.226.047l.134.022.081.012v2.567l-.084.012a4.555 4.555 0 00-.51.108L5.95 7.7a4.559 4.559 0 00-.559.207 2.066 2.066 0 00-.107.049 4.635 4.635 0 00-.485.267l-.093.06a4.643 4.643 0 00-.424.315c-.028.022-.055.046-.082.07a4.63 4.63 0 00-.369.359 4.92 4.92 0 00-.07.078 4.615 4.615 0 00-.317.4l-.06.087a4.518 4.518 0 00-.265.443q-.025.047-.049.1a4.578 4.578 0 00-.209.489l-.037.1a4.651 4.651 0 00-.146.539 4.73 4.73 0 00-.022.116 4.825 4.825 0 00-.07.6c0 .043 0 .087-.005.13v.123z"/></svg>