<svg xmlns="http://www.w3.org/2000/svg" width="196.803" height="47.676" viewBox="0 0 196.803 47.676"><g transform="translate(435.363 -351.926)"><path d="M-367.934,399.6h-1.414A18.057,18.057,0,0,1-387.4,381.544V351.926h0a6.356,6.356,0,0,1,6.357,6.357v23.261a11.7,11.7,0,0,0,11.7,11.7h1.414a11.7,11.7,0,0,0,11.7-11.7V358.283a6.356,6.356,0,0,1,6.357-6.357h0v29.618A18.057,18.057,0,0,1-367.934,399.6Z" transform="translate(13.012 0)" fill="#fff"/><path d="M-290.608,399.6h-1.414a18.057,18.057,0,0,1-18.058-18.058V358.283a6.356,6.356,0,0,1,6.357-6.357h0v29.618a11.7,11.7,0,0,0,11.7,11.7h1.414a11.7,11.7,0,0,0,11.7-11.7V351.926h0a6.356,6.356,0,0,1,6.357,6.357v23.261A18.057,18.057,0,0,1-290.608,399.6Z" transform="translate(33.991 0)" fill="#fff"/><path d="M-346.512,399.513h0V370.368a18.349,18.349,0,0,1,18.349-18.349h1.44a18.374,18.374,0,0,1,11.677,4.2l-4.047,4.9a12.016,12.016,0,0,0-7.63-2.74h-1.442a11.991,11.991,0,0,0-11.991,11.991v22.79A6.357,6.357,0,0,1-346.512,399.513Z" transform="translate(24.106 0.025)" fill="#fff"/><path d="M-395.914,399.526h-39.449l32.631-40.982h-21.947a6.573,6.573,0,0,1-6.574-6.573H-389.1l-32.631,40.981h19.239a6.574,6.574,0,0,1,6.574,6.574Z" transform="translate(0 0.012)" fill="#fff"/></g></svg>